# Blender v2.76 (sub 0) OBJ File: 'triangle.blend'
# www.blender.org
mtllib triangle.mtl
o Cone_Cone.001
v -1.000000 0.000000 -1.000000
v 1.000000 0.000000 -1.000000
v 1.000000 0.000000 1.000000
v 0.000000 2.000000 0.000000
v -1.000000 0.000000 1.000000
vt 0.500000 0.808955
vt 0.000100 0.999900
vt 0.191045 0.500000
vt 0.500000 0.191045
vt 0.999900 0.000100
vt 0.808955 0.500000
vt 0.000100 0.000100
vt 0.999900 0.999900
vn -0.000000 0.447200 0.894400
vn 0.000000 0.447200 -0.894400
vn -0.894400 0.447200 0.000000
vn 0.894400 0.447200 0.000000
vn 0.000000 -1.000000 0.000000
usemtl None
s off
f 3/1/1 4/2/1 5/3/1
f 1/4/2 4/5/2 2/6/2
f 5/3/3 4/7/3 1/4/3
f 2/6/4 4/8/4 3/1/4
f 1/4/5 2/6/5 3/1/5 5/3/5
